<?xml version="1.0" encoding="UTF-8" standalone="no"?>
<!-- Created with Inkscape (http://www.inkscape.org/) -->

<svg
   xmlns:dc="http://purl.org/dc/elements/1.1/"
   xmlns:cc="http://creativecommons.org/ns#"
   xmlns:rdf="http://www.w3.org/1999/02/22-rdf-syntax-ns#"
   xmlns:svg="http://www.w3.org/2000/svg"
   xmlns="http://www.w3.org/2000/svg"
   xmlns:sodipodi="http://sodipodi.sourceforge.net/DTD/sodipodi-0.dtd"
   xmlns:inkscape="http://www.inkscape.org/namespaces/inkscape"
   version="1.0"
   width="300"
   height="300"
   id="svg3841"
   inkscape:version="0.48.2 r9819"
   sodipodi:docname="Notags.pdf">
  <metadata
     id="metadata21">
    <rdf:RDF>
      <cc:Work
         rdf:about="">
        <dc:format>image/svg+xml</dc:format>
        <dc:type
           rdf:resource="http://purl.org/dc/dcmitype/StillImage" />
        <dc:title></dc:title>
      </cc:Work>
    </rdf:RDF>
  </metadata>
  <sodipodi:namedview
     pagecolor="#ffffff"
     bordercolor="#666666"
     borderopacity="1"
     objecttolerance="10"
     gridtolerance="10"
     guidetolerance="10"
     inkscape:pageopacity="0"
     inkscape:pageshadow="2"
     inkscape:window-width="640"
     inkscape:window-height="480"
     id="namedview19"
     showgrid="false"
     inkscape:zoom="0.78666667"
     inkscape:cx="150"
     inkscape:cy="150"
     inkscape:window-x="0"
     inkscape:window-y="0"
     inkscape:window-maximized="0"
     inkscape:current-layer="svg3841" />
  <defs
     id="defs3843" />
  <g
     transform="translate(-208.96433,-340.28125)"
     id="layer1">
    <g
       transform="translate(7.52904,22.25)"
       id="g3904">
      <path
         d="M 343.4375,405.75 L 281.15625,468.03125 L 343.625,530.5 L 491.40625,530.5 L 491.40625,405.75 L 343.4375,405.75 z M 304.59375,459.875 C 309.15525,459.875 312.84375,463.56351 312.84375,468.125 C 312.84376,472.68649 309.15524,476.40625 304.59375,476.40625 C 300.03227,476.40624 296.3125,472.68649 296.3125,468.125 C 296.31249,463.56351 300.03226,459.875 304.59375,459.875 z "
         style="fill:#ffff00;fill-opacity:1;fill-rule:evenodd;stroke:#000000;stroke-width:5;stroke-linecap:butt;stroke-linejoin:miter;stroke-miterlimit:4;stroke-dasharray:none;stroke-opacity:1"
         id="path3867" />
      <path
         d="M 304.38048,468.03177 C 300.57572,450.60999 284.35544,449.70887 258.7234,456.01675 C 234.42256,461.99704 218.07259,455.51612 211.46433,430.78521"
         style="fill:none;fill-rule:evenodd;stroke:#000000;stroke-width:5;stroke-linecap:round;stroke-linejoin:miter;stroke-miterlimit:4;stroke-dasharray:none;stroke-opacity:1"
         id="path3880" />
      <path
         d="M 351.58,427.81124 L 378.41354,427.81124"
         style="fill:none;fill-rule:evenodd;stroke:#000000;stroke-width:2;stroke-linecap:butt;stroke-linejoin:miter;stroke-miterlimit:4;stroke-dasharray:none;stroke-opacity:1"
         id="path3882" />
      <path
         d="M 389.53449,427.81124 L 430.62972,427.81124"
         style="fill:none;fill-rule:evenodd;stroke:#000000;stroke-width:2;stroke-linecap:butt;stroke-linejoin:miter;stroke-miterlimit:4;stroke-dasharray:none;stroke-opacity:1"
         id="path3884" />
      <path
         d="M 447.27132,427.81124 L 468.35418,427.81124"
         style="fill:none;fill-rule:evenodd;stroke:#000000;stroke-width:2;stroke-linecap:butt;stroke-linejoin:miter;stroke-miterlimit:4;stroke-dasharray:none;stroke-opacity:1"
         id="path3886" />
      <path
         d="M 351.58,444.83325 L 404.40661,444.83325"
         style="fill:none;fill-rule:evenodd;stroke:#000000;stroke-width:2;stroke-linecap:butt;stroke-linejoin:miter;stroke-miterlimit:4;stroke-dasharray:none;stroke-opacity:1"
         id="path3888" />
      <path
         d="M 449.80162,444.83325 L 420.73854,444.83325"
         style="fill:none;fill-rule:evenodd;stroke:#000000;stroke-width:2;stroke-linecap:butt;stroke-linejoin:miter;stroke-miterlimit:4;stroke-dasharray:none;stroke-opacity:1"
         id="path3892" />
      <path
         d="M 372.51248,462.08529 L 384.39424,462.08529"
         style="fill:none;fill-rule:evenodd;stroke:#000000;stroke-width:2;stroke-linecap:butt;stroke-linejoin:miter;stroke-miterlimit:4;stroke-dasharray:none;stroke-opacity:1"
         id="path3894" />
      <path
         d="M 392.06479,462.08529 C 392.06479,462.08529 429.26946,462.08529 432.2399,462.08529"
         style="fill:none;fill-rule:evenodd;stroke:#000000;stroke-width:2;stroke-linecap:butt;stroke-linejoin:miter;stroke-miterlimit:4;stroke-dasharray:none;stroke-opacity:1"
         id="path3896" />
      <path
         d="M 444.97105,462.08529 C 444.97105,462.08529 476.65507,462.08529 479.62551,462.08529"
         style="fill:none;fill-rule:evenodd;stroke:#000000;stroke-width:2;stroke-linecap:butt;stroke-linejoin:miter;stroke-miterlimit:4;stroke-dasharray:none;stroke-opacity:1"
         id="path3898" />
      <path
         d="M 351.58,478.87728 L 406.0168,478.87728"
         style="fill:none;fill-rule:evenodd;stroke:#000000;stroke-width:2;stroke-linecap:butt;stroke-linejoin:miter;stroke-miterlimit:4;stroke-dasharray:none;stroke-opacity:1"
         id="path3900" />
      <path
         d="M 417.59781,478.87728 L 472.03461,478.87728"
         style="fill:none;fill-rule:evenodd;stroke:#000000;stroke-width:2;stroke-linecap:butt;stroke-linejoin:miter;stroke-miterlimit:4;stroke-dasharray:none;stroke-opacity:1"
         id="path3902" />
      <path
         d="M 356.84375,340.28125 C 286.3204,340.28125 229.09375,397.50791 229.09375,468.03125 C 229.09375,538.5546 286.3204,595.78124 356.84375,595.78125 C 427.3671,595.78125 484.59375,538.5546 484.59375,468.03125 C 484.59375,397.5079 427.36709,340.28124 356.84375,340.28125 z M 356.84375,355.5 C 418.96621,355.50001 469.375,405.9088 469.375,468.03125 C 469.375,494.9388 459.89481,519.63196 444.125,539 L 285.875,380.75 C 305.24304,364.98019 329.9362,355.5 356.84375,355.5 z M 273.625,392.3125 L 432.5625,551.25 C 412.5682,569.45215 385.99544,580.5625 356.84375,580.5625 C 294.72131,580.56249 244.3125,530.1537 244.3125,468.03125 C 244.3125,438.87956 255.42284,412.3068 273.625,392.3125 z "
         style="fill:#ff0000;fill-opacity:1;stroke:none;stroke-width:0.5;stroke-linecap:round;stroke-linejoin:bevel;stroke-miterlimit:4;stroke-dasharray:none;stroke-dashoffset:0;stroke-opacity:1"
         id="path3859" />
    </g>
  </g>
</svg>
