<?xml version="1.0" encoding="UTF-8" standalone="no"?>
<svg
   xmlns:dc="http://purl.org/dc/elements/1.1/"
   xmlns:cc="http://creativecommons.org/ns#"
   xmlns:rdf="http://www.w3.org/1999/02/22-rdf-syntax-ns#"
   xmlns:svg="http://www.w3.org/2000/svg"
   xmlns="http://www.w3.org/2000/svg"
   xmlns:sodipodi="http://sodipodi.sourceforge.net/DTD/sodipodi-0.dtd"
   xmlns:inkscape="http://www.inkscape.org/namespaces/inkscape"
   version="1.1"
   x="0px"
   y="0px"
   width="278.30237"
   height="286.21799"
   viewBox="0 0 278.30237 286.21799"
   xml:space="preserve"
   id="svg2"
   inkscape:version="0.48.2 r9819"
   sodipodi:docname="search.svg"><metadata
   id="metadata10"><rdf:RDF><cc:Work
       rdf:about=""><dc:format>image/svg+xml</dc:format><dc:type
         rdf:resource="http://purl.org/dc/dcmitype/StillImage" /></cc:Work></rdf:RDF></metadata><defs
   id="defs8" /><sodipodi:namedview
   pagecolor="#ffffff"
   bordercolor="#666666"
   borderopacity="1"
   objecttolerance="10"
   gridtolerance="10"
   guidetolerance="10"
   inkscape:pageopacity="0"
   inkscape:pageshadow="2"
   inkscape:window-width="640"
   inkscape:window-height="480"
   id="namedview6"
   showgrid="false"
   fit-margin-top="8"
   fit-margin-left="0"
   fit-margin-right="0"
   fit-margin-bottom="0"
   inkscape:zoom="0.67428571"
   inkscape:cx="74.150999"
   inkscape:cy="204.10902"
   inkscape:window-x="0"
   inkscape:window-y="0"
   inkscape:window-maximized="0"
   inkscape:current-layer="svg2" />
<path
   d="m 269.531,235.108 -41.203,-41.203 c -7.585,-7.595 -18.232,-10.255 -27.97,-7.992 l -15.386,-15.367 c 12.34,-16.901 19.63,-37.726 19.63,-60.257 C 204.609,53.797 158.797,8.0000001 102.297,8.0000001 45.796999,8.0000001 -5.3136615e-7,53.797 -5.3136615e-7,110.289 -5.3136615e-7,166.797 45.797999,212.594 102.298,212.594 c 22.603,0 43.492,-7.338 60.425,-19.753 l 15.307,15.296 c -2.32,9.772 0.328,20.479 7.955,28.104 l 41.211,41.211 c 11.703,11.688 30.633,11.688 42.336,0 11.694,-11.702 11.694,-30.655 -10e-4,-42.344 z M 102.265,181.092 c -39.117001,0 -70.828001,-31.703 -70.828001,-70.828 0,-39.117 31.711,-70.82 70.828001,-70.82 39.102,0 70.828,31.72 70.828,70.82 0.001,39.117 -31.726,70.828 -70.828,70.828 z"
   id="path4"
   inkscape:connector-curvature="0" />
</svg>