<?xml version="1.0" encoding="UTF-8" standalone="no"?>
<!-- Created with Inkscape (http://www.inkscape.org/) -->

<svg
   xmlns:dc="http://purl.org/dc/elements/1.1/"
   xmlns:cc="http://creativecommons.org/ns#"
   xmlns:rdf="http://www.w3.org/1999/02/22-rdf-syntax-ns#"
   xmlns:svg="http://www.w3.org/2000/svg"
   xmlns="http://www.w3.org/2000/svg"
   xmlns:sodipodi="http://sodipodi.sourceforge.net/DTD/sodipodi-0.dtd"
   xmlns:inkscape="http://www.inkscape.org/namespaces/inkscape"
   id="svg2"
   sodipodi:version="0.32"
   inkscape:version="0.48.2 r9819"
   width="181.58424"
   height="174.42766"
   sodipodi:docname="US_Department_of_Justice_Scales_Of_Justice.svg"
   version="1.0">
  <metadata
     id="metadata7">
    <rdf:RDF>
      <cc:Work
         rdf:about="">
        <dc:format>image/svg+xml</dc:format>
        <dc:type
           rdf:resource="http://purl.org/dc/dcmitype/StillImage" />
        <dc:title>US Department of Justice Scales Of Justice</dc:title>
        <dc:date>11/03/2006</dc:date>
        <dc:creator>
          <cc:Agent>
            <dc:title>Liquid_2003</dc:title>
          </cc:Agent>
        </dc:creator>
        <dc:rights>
          <cc:Agent>
            <dc:title>Public Domain</dc:title>
          </cc:Agent>
        </dc:rights>
        <dc:source>http://fr.wikipedia.org/wiki/Image:US_Department_of_Justice_Scales_Of_Justice.gif</dc:source>
        <dc:language>Indépendant de la langue</dc:language>
        <dc:subject>
          <rdf:Bag>
            <rdf:li>Justice</rdf:li>
          </rdf:Bag>
        </dc:subject>
        <dc:description>Image PNG</dc:description>
        <dc:contributor>
          <cc:Agent>
            <dc:title>none</dc:title>
          </cc:Agent>
        </dc:contributor>
        <cc:license
           rdf:resource="http://web.resource.org/cc/PublicDomain" />
      </cc:Work>
      <cc:License
         rdf:about="http://web.resource.org/cc/PublicDomain">
        <cc:permits
           rdf:resource="http://web.resource.org/cc/Reproduction" />
        <cc:permits
           rdf:resource="http://web.resource.org/cc/Distribution" />
        <cc:permits
           rdf:resource="http://web.resource.org/cc/DerivativeWorks" />
      </cc:License>
    </rdf:RDF>
  </metadata>
  <defs
     id="defs5" />
  <sodipodi:namedview
     inkscape:window-height="724"
     inkscape:window-width="1152"
     inkscape:pageshadow="2"
     inkscape:pageopacity="0.0"
     borderopacity="1.0"
     bordercolor="#666666"
     pagecolor="#ffffff"
     id="base"
     inkscape:zoom="1.4215638"
     inkscape:cx="223.65405"
     inkscape:cy="87.610431"
     inkscape:window-x="-4"
     inkscape:window-y="0"
     inkscape:current-layer="svg2"
     showgrid="false"
     fit-margin-top="0"
     fit-margin-left="0"
     fit-margin-right="0"
     fit-margin-bottom="0"
     inkscape:window-maximized="0" />
  <path
     style="fill:#000000"
     d="m 56.391432,173.84837 c -0.37493,-0.37494 -0.6817,-1.03194 -0.6817,-1.46 0,-1.69522 11.64936,-8.98721 16.91333,-10.58701 3.07267,-0.93383 5.69567,-1.75516 5.82889,-1.82517 0.13322,-0.07 1.14718,-27.67206 2.253241,-61.337868 l 2.01101,-61.210561 -2.13793,-2.89169 c -1.234841,-1.67022 -1.871951,-3.58481 -1.508261,-4.53256 0.57465,-1.49752 -0.80765,-1.57882 -15.8237,-0.93058 -12.2311,0.52802 -17.63288,0.38005 -21.04969,-0.5766 -2.90424,-0.81314 -4.9462,-0.93702 -5.54671,-0.33651 -0.60051,0.60051 2.97386,21.88495 9.70925,57.81619 l 10.65964,56.865819 -2.90454,2.33649 c -4.5018,3.62138 -13.26531,6.64 -19.40453,6.68396 -6.42571,0.046 -17.191411,-3.3235 -21.412061,-6.70167 l -2.91206,-2.33079 11.189681,-57.414909 c 6.15431,-31.5782 11.60823,-58.40685 12.1198,-59.61921 0.88216,-2.09064 1.35773,-2.175 9.22238,-1.636 5.80678,0.39797 12.72546,-0.06532 23.0827,-1.54569 8.13474,-1.16271 15.178801,-2.11401 15.653481,-2.11401 0.47468,0 1.11382,-2.1375 1.42031,-4.75 0.30649,-2.6125 0.9342,-7.2250002 1.3949,-10.250001 l 0.83765,-5.5 0.73462,5 c 0.40403,2.7500003 0.98516,7.340991 1.29138,10.202191 l 0.55678,5.20219 4.16022,0.55021 c 2.28812,0.30261 9.335217,1.27954 15.660217,2.17096 7.3784,1.03988 14.47195,1.4138 19.79226,1.0433 7.86878,-0.54797 8.33976,-0.46489 9.22239,1.62685 0.51156,1.21236 5.96547,28.04101 12.1198,59.61921 l 11.18967,57.414909 -2.91206,2.33079 c -4.22065,3.37817 -14.98635,6.74768 -21.41206,6.70167 -6.13922,-0.044 -14.90273,-3.06258 -19.40453,-6.68396 l -2.90453,-2.33649 10.65963,-56.865819 c 6.92472,-36.94126 10.31799,-57.20745 9.68456,-57.84088 -0.63343,-0.63343 -2.37475,-0.51313 -4.96983,0.34332 -3.04754,1.00578 -8.03414,1.15038 -21.03003,0.60982 l -17.035267,-0.70858 0,2.33765 c 0,1.28571 -0.67702,3.30423 -1.50449,4.48562 -1.34159,1.91538 -1.28661,8.78015 0.50777,63.396941 1.10675,33.686948 2.12128,61.306268 2.2545,61.376288 0.13322,0.07 2.75622,0.89134 5.82889,1.82517 6.172547,1.87593 17.238687,9.22187 16.632857,11.04125 -0.42593,1.27911 -56.787748,2.25584 -58.037828,1.00576 z M 54.758232,139.75 C 54.956822,136.67894 34.987012,33.505581 34.193522,33.503131 33.401342,33.500691 12.504901,136.65119 12.669821,139.75 c 0.02195,0.4125 9.489911,0.75 21.039911,0.75 11.55,0 21.02183,-0.3375 21.0485,-0.75 z m 102.991408,0 c 0.16492,-3.09881 -20.73152,-106.249309 -21.5237,-106.246869 -0.79349,0.0024 -20.7633,103.175809 -20.56471,106.246869 0.0267,0.4125 9.4985,0.75 21.0485,0.75 11.55,0 21.01796,-0.3375 21.03991,-0.75 z"
     id="path1316"
     inkscape:export-filename="C:\Documents and Settings\Liquid_2003\Bureau\ext.png"
     inkscape:export-xdpi="90"
     inkscape:export-ydpi="90"
     inkscape:connector-curvature="0" />
  <text
     xml:space="preserve"
     style="font-size:20px;font-style:normal;font-variant:normal;font-weight:normal;font-stretch:normal;line-height:125%;letter-spacing:0px;word-spacing:0px;fill:#0000ff;fill-opacity:1;stroke:none;font-family:Catull;-inkscape-font-specification:Catull"
     x="-0.63999999"
     y="131.29247"
     id="text3033"
     sodipodi:linespacing="125%"><tspan
       sodipodi:role="line"
       id="tspan3035"
       x="-0.63999999"
       y="131.29247">exposure</tspan></text>
  <text
     xml:space="preserve"
     style="font-size:22px;font-style:normal;font-variant:normal;font-weight:normal;font-stretch:normal;line-height:125%;letter-spacing:0px;word-spacing:0px;fill:#0000ff;fill-opacity:1;stroke:none;font-family:Catull;-inkscape-font-specification:Catull"
     x="100.6569"
     y="132.69936"
     id="text3037"
     sodipodi:linespacing="125%"><tspan
       sodipodi:role="line"
       id="tspan3039"
       x="100.6569"
       y="132.69936">response</tspan></text>
</svg>
